<svg xmlns="http://www.w3.org/2000/svg" viewBox="13.5 37.5 1397.0 1397.0">
  <path fill="#ffffff" stroke="#ffffff" stroke-width="40" stroke-linejoin="round" stroke-linecap="round" d="M713 101C700 105 663 123 535 176C424 210 260 245 177 252C173 295 165 397 165 437C163 586 178 737 227 878C254 958 293 1035 346 1101C391 1158 444 1207 502 1250C545 1283 592 1310 639 1336C656 1345 673 1354 690 1361C696 1364 703 1368 710 1370C716 1371 723 1366 728 1364C743 1357 757 1350 771 1343C830 1314 886 1279 938 1239C995 1195 1047 1144 1091 1086C1185 960 1230 804 1250 649C1256 602 1258 554 1260 507C1261 479 1260 450 1260 422L1247 252C1221 251 1195 246 1169 243C1070 231 973 206 880 172C839 157 800 140 760 123C749 118 738 112 727 107C723 105 718 101 713 101z"/>
  <path fill="#153961" d="M177 252C173 295 165 397 165 437C163 586 178 737 227 878C254 958 293 1035 346 1101C391 1158 444 1207 502 1250C545 1283 592 1310 639 1336C656 1345 673 1354 690 1361C696 1364 703 1368 710 1370C716 1371 723 1366 728 1364C743 1357 757 1350 771 1343C830 1314 886 1279 938 1239C995 1195 1047 1144 1091 1086C1185 960 1230 804 1250 649C1256 602 1258 554 1260 507C1261 479 1260 450 1260 422C1246 430 1233 439 1220 448C1215 452 1207 455 1204 460C1202 463 1203 467 1203 470C1203 477 1203 484 1203 491C1205 507 1202 525 1202 541C1201 598 1193 657 1183 713C1161 832 1120 948 1049 1047C1024 1081 996 1111 966 1140C912 1193 849 1235 784 1272C767 1281 750 1290 733 1298C727 1301 720 1308 713 1308C710 1308 706 1306 703 1304L683 1294C656 1281 630 1267 605 1251C497 1184 401 1098 337 987C267 864 236 720 226 580C223 531 220 483 221 434C222 390 226 347 229 303C258 303 287 296 316 291C405 278 492 252 576 221C608 209 640 196 671 182L699 169C703 167 708 163 712 163C718 163 726 169 732 172C751 180 769 189 788 197C849 222 912 244 976 262C1027 276 1079 288 1131 295C1147 297 1162 299 1178 302C1182 302 1191 301 1194 305C1196 307 1197 310 1197 313C1197 319 1198 326 1198 332C1200 356 1202 380 1202 405C1212 405 1222 401 1232 399C1241 397 1250 396 1259 393C1257 382 1258 371 1257 360C1256 341 1253 321 1252 302C1251 285 1250 268 1247 252C1221 251 1195 246 1169 243C1070 231 973 206 880 172C839 157 800 140 760 123C749 118 738 112 727 107C723 105 718 101 713 101C708 101 702 106 697 108C686 113 674 118 663 123C621 142 578 159 535 176C499 189 461 200 424 210C343 231 261 245 177 252z M255 328C251.192 348.509 251.87 370.222 250.961 391C249.109 433.286 248.106 475.652 249.961 518C255.429 642.883 270.872 770.386 318.989 887C334.767 925.237 351.615 965.974 377 999C389.679 991.671 400.507 977.97 408.656 966C428.348 937.076 439.541 903.27 452.449 871L465 840C467.1 834.749 470.006 829.576 471 824C485.566 834.261 498.903 850.563 510.576 864C514.095 868.052 521.675 873.346 522.238 879C522.538 882.023 520.687 885.28 519.6 888C517.067 894.34 514.348 900.609 511.95 907C509.944 912.345 507.885 917.686 505.797 923C495.36 949.565 479.114 989.993 508 1011.07C512.495 1014.35 517.734 1016.87 523 1018.64C531.204 1021.41 540.324 1023.82 549 1024L549 1049C535.779 1047.33 522.323 1048 509 1048L446 1048C434.769 1048 421.963 1049.94 411 1048C416.439 1057.42 424.635 1065.96 431.925 1074C442.755 1085.94 453.572 1097.61 465 1109C514.473 1158.31 570.214 1198.93 630 1234.8C649.261 1246.36 668.914 1257.2 689 1267.25C695.725 1270.61 705.263 1277.82 713 1277.6C720.943 1277.38 730.061 1269.72 737 1266.25C757.01 1256.24 776.784 1245.67 796 1234.2C854.344 1199.38 908.517 1159.34 957.348 1112C969.865 1099.86 981.554 1087 993.166 1074C1000.5 1065.79 1008.52 1057.62 1014 1048L876 1048L839 1048C835.29 1048.01 828.533 1050 825.318 1047.96C822.978 1046.47 823.051 1043.44 823.005 1041C822.898 1035.34 823 1029.66 823 1024C830.987 1023.93 839.35 1022.23 847 1019.96C852.828 1018.23 858.889 1015.76 864 1012.45C891.303 994.77 879.385 956.421 869.797 932C867.835 927.002 865.831 922.029 863.95 917C861.433 910.271 858.536 903.695 855.939 897C852.3 887.62 848.338 878.345 844.6 869C843.151 865.375 840.53 860.986 841.901 857C843.178 853.287 846.537 850.082 848.87 847C853.678 840.65 858.488 834.309 863.349 828C877.005 810.276 890.446 792.312 904.614 775C913.066 764.673 923.926 753.899 930 742L932 742C934.892 752.574 939.929 762.822 944 773C951.75 792.377 959.501 811.757 967.576 831C981.757 864.796 993.576 900.09 1009.76 933C1017.66 949.074 1025.78 964.115 1037.25 978C1041.82 983.533 1046.38 989.913 1053 993C1060.45 977.248 1070.89 962.678 1078.73 947C1094.33 915.797 1107.61 883.868 1119.31 851C1161.25 733.161 1175 604.282 1175 480C1160.95 485.94 1148.11 498.694 1136 507.87C1105.86 530.7 1076.73 555.217 1049 580.911C987.521 637.884 932.216 699.993 879.389 765C847.015 804.839 815.115 845.725 785.974 888C763.894 920.033 741.254 951.619 719.667 984C713.48 993.28 707.441 1002.66 701.344 1012C697.647 1017.66 693.06 1023.54 691 1030C681.376 1022.92 674.21 1011.16 666.586 1002C651.78 984.21 636.863 966.503 621.718 949C576.085 896.264 529.309 844.309 480 795C465.094 780.094 449.805 765.6 434.424 751.196C427.414 744.631 420.718 735.225 412 731C418.867 721.677 431.02 715.032 440 707.739C462.192 689.717 484.752 672.153 507 654.197C514.366 648.252 521.693 642.268 529 636.25C531.486 634.203 534.777 630.465 538.286 632.107C542.68 634.164 546.432 638.648 550 641.834C556.692 647.81 563.344 653.818 570 659.83C595.045 682.452 618.417 706.823 643.251 729.655C651.717 737.439 659.84 745.669 667.765 754C670.298 756.664 673.748 762.372 678 761.963C681.392 761.637 683.949 757.756 686 755.424C691.678 748.97 697.185 742.334 702.999 736.004C726.967 709.91 750.941 684.059 776 659C853.466 581.534 940.943 512.188 1040 464.258C1071.85 448.849 1104.62 435.933 1138 424.344C1146.59 421.362 1155.32 418.724 1164 416.026C1166.94 415.113 1171.87 414.682 1173.4 411.581C1175.58 407.128 1174 398.885 1174 394C1174 378.365 1173.46 362.506 1171.42 347C1170.82 342.372 1172.3 332.324 1168.4 328.988C1164.88 325.984 1156.43 326.302 1152 325.589C1137.04 323.187 1121.99 321.03 1107 318.869C1078.36 314.741 1050.17 307.964 1022 301.5C1003.63 297.285 985.038 293.284 967 287.822C905.626 269.237 845.55 249.094 786 225.2C769.173 218.448 752.292 211.197 736 203.245C729.58 200.111 719.234 192.925 712 193.318C707.58 193.558 702.991 196.683 699 198.424C688.586 202.969 678.364 208.023 668 212.694C636.857 226.732 605.076 239.225 573 250.947C495.105 279.412 414.721 302.058 333 316.25C307.177 320.734 281.161 325.935 255 328z"/>
  <path fill="#129272" d="M678 801C668 787 655 776 643 764C621 742 598 720 575 698C566 689 557 680 548 672C545 670 541 664 537 664C534 664 532 666 530 667C525 671 520 675 515 679C500 691 485 703 470 714C463 720 453 725 449 733C465 744 479 760 492 774C515 797 537 820 559 844C589 877 619 910 648 944C661 959 676 973 688 990C720 940 810 820 910 700C1000 580 1140 470 1207 429C1189 433 1172 439 1155 445C1041 481 937 543 848 623C806 661 765 702 727 744C710 763 695 782 678 801z"/>
  <path fill="#ffffff" d="M595 333L595 356C601.733 356.531 608.61 357.615 615 359.865C619.504 361.451 624.232 363.4 627.996 366.39C649.189 383.229 637.12 415.524 629.189 436L624.189 449C608.53 489.427 591.366 529.344 576.319 570C572.598 580.052 568.578 590.049 564.6 600C563.038 603.91 559.448 609.671 560.121 614C560.958 619.383 568.23 623.704 572 627.05C581.046 635.081 589.932 643.288 599 651.286C602.934 654.755 606.205 658.764 611 661C633.309 595.057 663.69 531.945 686 466C695.055 483.18 700.234 502.963 707.449 521C723.654 561.512 739.218 602.311 755 643C763.171 637.244 769.658 629.039 776.911 622.184C791.973 607.95 807.356 594.007 823 580.424C829.69 574.615 836.201 568.606 843 562.92C845.927 560.472 850.41 557.751 851.762 553.996C853.316 549.683 848.954 542.891 847.281 539C842.308 527.432 837.814 515.64 833.011 504C816.032 462.857 799.933 421.331 783.4 380C779.154 369.385 775.055 358.708 771.05 348C769.56 344.015 767.965 336.609 764.351 334.028C761.189 331.769 754.689 333 751 333L719 333L595 333z"/>
</svg>